<?xml version="1.0" encoding="utf-8"?>
<!-- Generator: Adobe Illustrator 19.2.1, SVG Export Plug-In . SVG Version: 6.00 Build 0)  -->
<svg version="1.1" id="layer" xmlns="http://www.w3.org/2000/svg" xmlns:xlink="http://www.w3.org/1999/xlink" x="0px" y="0px"
	 viewBox="0 0 652 652" style="enable-background:new 0 0 652 652;" xml:space="preserve">
<style type="text/css">
	.st0{fill:#222222;}
	.st1{fill:#FF4533;}
</style>
<g>
	<path class="st0" d="M66,323.8h35.8v34.8c-8.5,4.9-19.4,10-36.7,10c-22.1,0-39.1-11.9-39.1-30.5v-25.1c0-18.4,18.2-29.7,39.5-29.7
		c13.2,0,25.7,3.5,33.5,9.1l-4.4,7.9c-6.8-4.6-17.3-7.8-28.6-7.8c-15.8,0-29.4,8-29.4,21.3v23.4c0,13.8,12.9,22,28.5,22
		c12.1,0,19.5-3,26.1-6.5v-20.3H66V323.8z"/>
	<path class="st0" d="M126.8,324.1h32c8.8-0.4,17.5-4.6,17.5-13.5v-3c0-8.2-7.2-13.6-18.3-13.6h-31.3V324.1z M167.1,330.5l21.7,36.9
		h-11.7l-20.3-34.6h-30v34.6h-10.6v-82.8h42.5c17.2,0,28.4,8.3,28.4,22.4v2.9C187.1,321.4,178.6,328.2,167.1,330.5"/>
</g>
<path class="st0" d="M257.1,334.2l-17.3-39l-17.4,39H257.1z M245.5,283.6l36.5,83.8h-11.8l-10.6-24.4h-39.8L209,367.4h-11.7
	l36.9-83.8H245.5z"/>
<g>
	<path class="st0" d="M350.3,342.6c0-8.9-8.8-13.5-20.2-13.5h-28.1v29.6h29.2c11.3,0,19.1-3.8,19.1-12.5V342.6z M301.9,320.7h27.7
		c10.2,0,17.7-4.4,17.7-12.3v-2.2c0-9.3-6.3-12.8-19.1-12.8h-26.2V320.7z M343,324.4c10.8,2.9,17.9,9.4,17.9,18.9v3.7
		c0,13.3-11.2,20.5-28.5,20.5h-41.1v-82.8h38c17.7,0,28.5,7.7,28.5,21.1v2.2C357.9,315.2,351.9,322,343,324.4"/>
	<path class="st1" d="M394.2,314.9v21.9c0,11.4,8.9,16.1,21.1,16.1c9.3,0,17.5-1.7,23.9-5.5l6.1,13.6c-8.8,5.5-16.9,7.6-31.1,7.6
		c-22.2,0-38.6-10.4-38.6-30.7v-24c0-19,17.8-30.6,38.5-30.6c14,0,23,2.2,32,8.3l-6.7,13.3c-6.6-3.8-14-5.8-24.2-5.8
		C403.9,299.1,394.2,304.7,394.2,314.9"/>
</g>
<path class="st1" d="M508.1,335.2l-12.5-32.9l-12.8,32.9H508.1z M505.8,283.9l33.4,83.6h-20.6l-6.9-18.2h-32.4l-7.1,18.2h-20.6
	l33.6-83.6H505.8z"/>
<g>
	<path class="st1" d="M607.6,319.3c0-13.5-8.4-19.5-19.1-19.5h-20.6v52.4h19.3c11,0,20.5-5.5,20.5-19.5V319.3z M588.5,284.6
		c21.9,0,37.5,10,37.5,31.7v19.5c0,21.8-17.2,31.7-38.9,31.7h-37.5v-82.8H588.5z"/>
</g>
</svg>
